<svg xmlns="http://www.w3.org/2000/svg" version="1.1" xmlns:xlink="http://www.w3.org/1999/xlink" xmlns:svgjs="http://svgjs.dev/svgjs" width="1000" height="623" viewBox="0 0 1000 623"><g transform="matrix(1,0,0,1,-0.6060606060606233,0.2522267206477409)"><svg viewBox="0 0 396 247" data-background-color="#010536" preserveAspectRatio="xMidYMid meet" height="623" width="1000" xmlns="http://www.w3.org/2000/svg" xmlns:xlink="http://www.w3.org/1999/xlink"><g id="tight-bounds" transform="matrix(1,0,0,1,0.2400000000000091,-0.09999999999999432)"><svg viewBox="0 0 395.52 247.2" height="247.2" width="395.52"><g><svg></svg></g><g><svg viewBox="0 0 395.52 247.2" height="247.2" width="395.52"><g transform="matrix(1,0,0,1,75.54432,57.34919267760134)"><svg viewBox="0 0 244.43135999999998 132.50161464479731" height="132.50161464479731" width="244.43135999999998"><g><svg viewBox="0 0 244.43135999999998 132.50161464479731" height="132.50161464479731" width="244.43135999999998"><g><svg viewBox="0 0 244.43135999999998 132.50161464479731" height="132.50161464479731" width="244.43135999999998"><g><svg viewBox="0 0 244.43135999999998 132.50161464479731" height="132.50161464479731" width="244.43135999999998"><g id="textblocktransform"><svg viewBox="0 0 244.43135999999998 132.50161464479731" height="132.50161464479731" width="244.43135999999998" id="textblock"><g><svg viewBox="0 0 244.43135999999998 132.50161464479731" height="132.50161464479731" width="244.43135999999998"><g transform="matrix(1,0,0,1,0,0)"><svg width="244.43135999999998" viewBox="66.53999999999999 -31.86 130.68 67.84" height="132.50161464479731" data-palette-color="#fbfbf8"><svg></svg><svg></svg><g class="wordmark-text-0" data-fill-palette-color="primary" id="text-0"><path d="M89.67-15.89v0c0 2.127-0.223 4.157-0.67 6.09-0.447 1.927-1.163 3.62-2.15 5.08-0.98 1.453-2.247 2.603-3.8 3.45-1.56 0.847-3.437 1.27-5.63 1.27v0h-10.35v-31.86h10.35c2.16 0 4.02 0.437 5.58 1.31 1.553 0.867 2.823 2.033 3.81 3.5 0.98 1.467 1.703 3.16 2.17 5.08 0.46 1.92 0.69 3.947 0.69 6.08zM86.33-15.89v0c0-4.167-0.787-7.393-2.36-9.68-1.567-2.287-3.75-3.43-6.55-3.43v0h-7.01v26.14h7.01c2.8 0 4.983-1.13 6.55-3.39 1.573-2.26 2.36-5.473 2.36-9.64zM116.16-10.21h-19.65c0.247 2.413 1.127 4.337 2.64 5.77 1.513 1.433 3.48 2.15 5.9 2.15v0c1.713 0 3.237-0.35 4.57-1.05 1.333-0.7 2.333-1.573 3-2.62v0l2.35 1.61c-1.14 1.6-2.5 2.817-4.08 3.65-1.58 0.84-3.527 1.26-5.84 1.26v0c-1.753 0-3.363-0.293-4.83-0.88-1.467-0.587-2.733-1.403-3.8-2.45-1.06-1.053-1.883-2.303-2.47-3.75-0.587-1.447-0.88-3.057-0.88-4.83v0c0-1.727 0.263-3.32 0.79-4.78 0.527-1.453 1.293-2.713 2.3-3.78 1-1.067 2.217-1.897 3.65-2.49 1.427-0.593 3.03-0.89 4.81-0.89v0c1.933 0 3.623 0.327 5.07 0.98 1.453 0.647 2.663 1.543 3.63 2.69 0.967 1.147 1.683 2.52 2.15 4.12 0.46 1.593 0.69 3.357 0.69 5.29zM96.56-13.06h16.06c-0.373-2.493-1.277-4.35-2.71-5.57-1.433-1.22-3.197-1.83-5.29-1.83v0c-1.08 0-2.073 0.177-2.98 0.53-0.913 0.347-1.72 0.847-2.42 1.5-0.7 0.647-1.287 1.43-1.76 2.35-0.473 0.92-0.773 1.927-0.9 3.02zM142.02-14.04v14.04h-3.37v-14.04c0-2.033-0.44-3.61-1.32-4.73-0.88-1.127-2.303-1.69-4.27-1.69v0c-1.24 0-2.36 0.287-3.36 0.86-1 0.567-1.85 1.327-2.55 2.28-0.7 0.953-1.233 2.043-1.6 3.27-0.367 1.227-0.55 2.507-0.55 3.84v0 10.21h-3.34v-22.75h3.34v5.71c1.613-4.167 4.487-6.25 8.62-6.25v0c5.6 0 8.4 3.083 8.4 9.25zM161.4-31.86v4.57h-4.54v-4.57zM165.94-2.86v2.86h-13.64v-2.86h5.15v-17.04h-5.15v-2.85h8.52v19.89zM196.7-9.11v9.11h-20.5v-2.86l15.5-17.04h-12.6v6.25h-2.85v-9.1h19.89v2.85l-15.5 17.04h13.21v-6.25z" fill="#fbfbf8" fill-rule="nonzero" stroke="none" stroke-width="1" stroke-linecap="butt" stroke-linejoin="miter" stroke-miterlimit="10" stroke-dasharray="" stroke-dashoffset="0" font-family="none" font-weight="none" font-size="none" text-anchor="none" style="mix-blend-mode: normal" data-fill-palette-color="primary" opacity="1"></path><path d="M86.9 3.56v31.86h-3.37v-14.75h-13.65v14.75h-3.34v-31.86h3.34v14.26h13.65v-14.26zM93.83 26.73v-14.06h3.35v14.06c0 2.033 0.443 3.607 1.33 4.72 0.887 1.12 2.313 1.68 4.28 1.68v0c1.24 0 2.357-0.287 3.35-0.86 0.993-0.567 1.837-1.327 2.53-2.28 0.7-0.953 1.233-2.043 1.6-3.27 0.367-1.233 0.55-2.517 0.55-3.85v0-10.2h3.37v22.75h-3.37v-5.69c-1.593 4.167-4.457 6.25-8.59 6.25v0c-5.6 0-8.4-3.083-8.4-9.25zM130.82 23.12l11.81 12.3h-4.76l-9.3-10.21-4.1 3.76v6.45h-3.34v-31.86h3.34v21.36l12.96-12.25h4.79zM148.42 26.73v-14.06h3.35v14.06c0 2.033 0.443 3.607 1.33 4.72 0.887 1.12 2.313 1.68 4.28 1.68v0c1.24 0 2.357-0.287 3.35-0.86 0.993-0.567 1.837-1.327 2.53-2.28 0.7-0.953 1.233-2.043 1.6-3.27 0.367-1.233 0.55-2.517 0.55-3.85v0-10.2h3.37v22.75h-3.37v-5.69c-1.593 4.167-4.457 6.25-8.59 6.25v0c-5.6 0-8.4-3.083-8.4-9.25zM185.41 23.12l11.81 12.3h-4.76l-9.3-10.21-4.1 3.76v6.45h-3.34v-31.86h3.34v21.36l12.96-12.25h4.79z" fill="#fbfbf8" fill-rule="nonzero" stroke="none" stroke-width="1" stroke-linecap="butt" stroke-linejoin="miter" stroke-miterlimit="10" stroke-dasharray="" stroke-dashoffset="0" font-family="none" font-weight="none" font-size="none" text-anchor="none" style="mix-blend-mode: normal" data-fill-palette-color="primary" opacity="1"></path></g></svg></g></svg></g></svg></g></svg></g></svg></g></svg></g></svg></g><path d="M247.547 51.349L247.547 0 0.347 0 0.347 247.2 247.547 247.2 247.547 195.851 242.079 195.851 242.079 241.731 5.816 241.731 5.816 5.469 242.079 5.469 242.079 51.349Z" fill="#fbfbf8" stroke="transparent" data-fill-palette-color="primary"></path></svg></g><defs></defs></svg><rect width="395.52" height="247.2" fill="none" stroke="none" visibility="hidden"></rect></g></svg></g></svg>